<svg xmlns="http://www.w3.org/2000/svg" xmlns:xlink="http://www.w3.org/1999/xlink" width="252.76" height="95.037" viewBox="0 0 252.76 95.037">
  <defs>
    <clipPath id="clip-path">
      <rect id="Rectangle_832" data-name="Rectangle 832" width="238.917" height="80.845" fill="#0ea5a0"/>
    </clipPath>
  </defs>
  <g id="Group_1335" data-name="Group 1335" transform="translate(-824 -712.807)">
    <g id="Group_1334" data-name="Group 1334" transform="translate(825.112 713)" opacity="0.95">
      <g id="Group_1333" data-name="Group 1333" transform="translate(0.888)">
        <g id="Group_1332" data-name="Group 1332" clip-path="url(#clip-path)">
          <path id="Path_277427" data-name="Path 277427" d="M12.073.8.888,80.845,239.8,67.837,237.121,0Z" transform="translate(-0.888 0)" fill="#0ea5a0"/>
        </g>
      </g>
    </g>
    <path id="Path_277428" data-name="Path 277428" d="M19.4,47.117V36.267q0-11.614,9.218-11.615a10.265,10.265,0,0,1,3.451.537,7.28,7.28,0,0,1,2.534,1.484A7.6,7.6,0,0,1,36.292,29a11.792,11.792,0,0,1,.954,3,20.241,20.241,0,0,1,.291,3.568V38.4H31.215V35.375c0-.594-.01-1.108-.034-1.538A12.8,12.8,0,0,0,31,32.362a5.113,5.113,0,0,0-.408-1.347,2.383,2.383,0,0,0-.758-.883,2.016,2.016,0,0,0-1.209-.364q-2.793,0-2.791,4.842V48.755q0,4.825,2.791,4.824a2.045,2.045,0,0,0,1.394-.491,2.743,2.743,0,0,0,.812-1.392,10.74,10.74,0,0,0,.336-1.766,19.627,19.627,0,0,0,.088-1.976V44.586h6.286v2.768a23.58,23.58,0,0,1-.3,3.458,13.463,13.463,0,0,1-.9,3.077,8.353,8.353,0,0,1-1.614,2.522,7.172,7.172,0,0,1-2.534,1.656,9.467,9.467,0,0,1-3.567.628,10.222,10.222,0,0,1-3.665-.61,7.41,7.41,0,0,1-2.632-1.638,8.307,8.307,0,0,1-1.7-2.531,12.92,12.92,0,0,1-.945-3.158,22.462,22.462,0,0,1-.272-3.641" transform="translate(824 713)" fill="#fff"/>
    <path id="Path_277429" data-name="Path 277429" d="M40.133,47.281V36.267q0-11.614,9.289-11.615,9.306,0,9.306,11.615v10.85a21.794,21.794,0,0,1-.283,3.632,12.7,12.7,0,0,1-.962,3.158,8.532,8.532,0,0,1-1.731,2.54A7.348,7.348,0,0,1,53.1,58.1a11.573,11.573,0,0,1-7.329.009,7.427,7.427,0,0,1-2.648-1.6A8.221,8.221,0,0,1,41.4,54.026a12.553,12.553,0,0,1-.971-3.122,20.986,20.986,0,0,1-.292-3.623M52.3,48.774V34.611q0-4.844-2.878-4.843a2.391,2.391,0,0,0-1.466.446,2.578,2.578,0,0,0-.883,1.22,7.928,7.928,0,0,0-.4,1.529,10.94,10.94,0,0,0-.115,1.648V48.774q0,4.824,2.861,4.824,2.877,0,2.878-4.824" transform="translate(824 713)" fill="#fff"/>
    <path id="Path_277430" data-name="Path 277430" d="M62.1,58.058V25.29h7.7l3.39,21.845L76.846,25.29H84.28V58.058H79.547l-.141-23.047q-.529,3.549-1.854,11.524T75.7,58.058h-4.8l-3.9-23.193-.141,23.193Z" transform="translate(824 713)" fill="#fff"/>
    <rect id="Rectangle_833" data-name="Rectangle 833" width="6.428" height="32.768" transform="translate(912.059 738.289)" fill="#fff"/>
    <path id="Path_277431" data-name="Path 277431" d="M98.266,58.058V25.271h4.627l6.975,17.149V25.271H115.2V58.058H110.75l-6.957-18.186V58.058Z" transform="translate(824 713)" fill="#fff"/>
    <path id="Path_277432" data-name="Path 277432" d="M118.573,47.809V36.267q0-11.614,9.376-11.615a10.7,10.7,0,0,1,3.523.537,7.41,7.41,0,0,1,2.587,1.484A7.568,7.568,0,0,1,135.772,29a11.776,11.776,0,0,1,.971,3,19.556,19.556,0,0,1,.3,3.568v1.93H130.9V35.211q0-.855-.045-1.5a9.757,9.757,0,0,0-.22-1.438,4.515,4.515,0,0,0-.477-1.3,2.488,2.488,0,0,0-.865-.856,2.518,2.518,0,0,0-1.343-.346Q125,29.768,125,34.61V48.755q0,4.825,2.948,4.824,2.933,0,2.932-5.006V45.952h-3.638V41.2h10.066V58.058h-4.415l-.812-2.294a6,6,0,0,1-2.314,2.121,6.426,6.426,0,0,1-3.09.81,7.379,7.379,0,0,1-3.117-.646,6.645,6.645,0,0,1-2.313-1.711,9.758,9.758,0,0,1-1.527-2.5,13.152,13.152,0,0,1-.883-2.94,17.675,17.675,0,0,1-.265-3.085" transform="translate(824 713)" fill="#fff"/>
    <path id="Path_277433" data-name="Path 277433" d="M146.985,48.682,153.5,47.39q0,1,.036,1.766a14.054,14.054,0,0,0,.185,1.665,6.133,6.133,0,0,0,.406,1.475,2.651,2.651,0,0,0,.724.965,1.666,1.666,0,0,0,1.1.391q1.907,0,1.907-2.512,0-3.441-3.761-6.845l-2-1.748q-.954-.819-1.518-1.365a18.222,18.222,0,0,1-1.333-1.475,9.55,9.55,0,0,1-1.2-1.793,10.836,10.836,0,0,1-1.05-4.67,8.27,8.27,0,0,1,2.454-6.308,9.1,9.1,0,0,1,6.516-2.32,7.647,7.647,0,0,1,5.74,2.475,8.333,8.333,0,0,1,2.366,5.971l-.018.237v.546l-6.639.947c0-.133.008-.343.026-.628s.026-.519.026-.7a8.608,8.608,0,0,0-.088-1.256A6.938,6.938,0,0,0,157.1,31a2.094,2.094,0,0,0-.627-.955,1.541,1.541,0,0,0-1.024-.355,1.748,1.748,0,0,0-1.59.855,3.764,3.764,0,0,0-.529,2.021,5.792,5.792,0,0,0,.308,1.911,5.5,5.5,0,0,0,.937,1.666,14.106,14.106,0,0,0,1.156,1.284q.529.509,1.413,1.247t1.254,1.083a27.642,27.642,0,0,1,2.295,2.321,18.179,18.179,0,0,1,1.766,2.449A11.046,11.046,0,0,1,163.7,47.48a13.514,13.514,0,0,1,.415,3.423,7.312,7.312,0,0,1-2.384,5.635,8.246,8.246,0,0,1-5.792,2.193,8.817,8.817,0,0,1-3.92-.837,7.351,7.351,0,0,1-2.763-2.276,11.158,11.158,0,0,1-1.616-3.185,14.168,14.168,0,0,1-.654-3.751" transform="translate(824 713)" fill="#fff"/>
    <path id="Path_277434" data-name="Path 277434" d="M166.268,47.281V36.267q0-11.614,9.289-11.615,9.306,0,9.306,11.615v10.85a21.793,21.793,0,0,1-.283,3.632,12.7,12.7,0,0,1-.962,3.158,8.531,8.531,0,0,1-1.731,2.54A7.348,7.348,0,0,1,179.23,58.1a11.573,11.573,0,0,1-7.329.009,7.427,7.427,0,0,1-2.648-1.6,8.221,8.221,0,0,1-1.722-2.476,12.553,12.553,0,0,1-.971-3.122,20.986,20.986,0,0,1-.292-3.623m12.167,1.493V34.611q0-4.844-2.878-4.843a2.391,2.391,0,0,0-1.466.446,2.578,2.578,0,0,0-.883,1.22,7.928,7.928,0,0,0-.4,1.529,10.939,10.939,0,0,0-.115,1.648V48.774q0,4.824,2.861,4.824,2.877,0,2.878-4.824" transform="translate(824 713)" fill="#fff"/>
    <path id="Path_277435" data-name="Path 277435" d="M187.83,47.281V36.267q0-11.614,9.288-11.615,9.306,0,9.306,11.615v10.85a21.8,21.8,0,0,1-.282,3.632,12.741,12.741,0,0,1-.963,3.158,8.513,8.513,0,0,1-1.731,2.54,7.348,7.348,0,0,1-2.657,1.648,11.573,11.573,0,0,1-7.329.009,7.427,7.427,0,0,1-2.648-1.6,8.221,8.221,0,0,1-1.722-2.476,12.554,12.554,0,0,1-.971-3.122,20.99,20.99,0,0,1-.291-3.623M200,48.774V34.611q0-4.844-2.878-4.843a2.391,2.391,0,0,0-1.466.446,2.578,2.578,0,0,0-.883,1.22,7.928,7.928,0,0,0-.4,1.529,10.941,10.941,0,0,0-.115,1.648V48.774q0,4.824,2.861,4.824,2.877,0,2.878-4.824" transform="translate(824 713)" fill="#fff"/>
    <path id="Path_277436" data-name="Path 277436" d="M209.8,58.058V25.271h4.626L221.4,42.42V25.271h5.333V58.058h-4.451l-6.957-18.186V58.058Z" transform="translate(824 713)" fill="#fff"/>
    <rect id="Rectangle_834" data-name="Rectangle 834" width="250.76" height="94.844" transform="translate(824 713)" fill="none"/>
    <rect id="Rectangle_835" data-name="Rectangle 835" width="250.76" height="94.844" transform="translate(824 713)" fill="none"/>
    <path id="Path_277426" data-name="Path 277426" d="M11.624,94.845a.888.888,0,0,1-.88-.782L.006,4.8a.886.886,0,0,1,.225-.7.828.828,0,0,1,.681-.289L240.5,10.522a.887.887,0,0,1,.851.741l9.4,56.374a.889.889,0,0,1-.779,1.029L11.722,94.839a.817.817,0,0,1-.1.006M1.892,5.614,12.4,92.978,248.842,67l-9.121-54.727Z" transform="translate(826 709)" fill="#fff"/>
  </g>
</svg>
